<svg width="12" height="8" viewBox="0 0 12 8" fill="none" xmlns="http://www.w3.org/2000/svg">
<path fill-rule="evenodd" clip-rule="evenodd" d="M0.894543 0.831618C1.17163 0.589164 1.59281 0.617242 1.83526 0.894333L6.00021 5.65427L10.1652 0.894333C10.4076 0.617242 10.8288 0.589164 11.1059 0.831618C11.383 1.07407 11.4111 1.49525 11.1686 1.77234L6.75279 6.81898C6.35438 7.2743 5.64605 7.2743 5.24764 6.81898L0.831828 1.77234C0.589373 1.49525 0.617452 1.07407 0.894543 0.831618Z" fill="black"/>
<path fill-rule="evenodd" clip-rule="evenodd" d="M0.894543 0.831618C1.17163 0.589164 1.59281 0.617242 1.83526 0.894333L6.00021 5.65427L10.1652 0.894333C10.4076 0.617242 10.8288 0.589164 11.1059 0.831618C11.383 1.07407 11.4111 1.49525 11.1686 1.77234L6.75279 6.81898C6.35438 7.2743 5.64605 7.2743 5.24764 6.81898L0.831828 1.77234C0.589373 1.49525 0.617452 1.07407 0.894543 0.831618Z" fill="#2A59FE" fill-opacity="0.3"/>
<path fill-rule="evenodd" clip-rule="evenodd" d="M0.894543 0.831618C1.17163 0.589164 1.59281 0.617242 1.83526 0.894333L6.00021 5.65427L10.1652 0.894333C10.4076 0.617242 10.8288 0.589164 11.1059 0.831618C11.383 1.07407 11.4111 1.49525 11.1686 1.77234L6.75279 6.81898C6.35438 7.2743 5.64605 7.2743 5.24764 6.81898L0.831828 1.77234C0.589373 1.49525 0.617452 1.07407 0.894543 0.831618Z" fill="white" fill-opacity="0.65"/>
</svg>
